<svg width="60" height="64" viewBox="0 0 60 64" fill="none" xmlns="http://www.w3.org/2000/svg">
  <!-- Building/resource icon for "預定資源" -->
  <!-- Main building -->
  <rect x="8" y="14" width="28" height="46" rx="3" fill="#C1DBF6" stroke="#374874" stroke-width="2"/>
  <!-- Building roof -->
  <rect x="8" y="14" width="28" height="10" rx="3" fill="#374874"/>
  <rect x="8" y="21" width="28" height="3" fill="#374874"/>
  <!-- Windows row 1 -->
  <rect x="13" y="30" width="6" height="6" rx="1" fill="#374874"/>
  <rect x="25" y="30" width="6" height="6" rx="1" fill="#374874"/>
  <!-- Windows row 2 -->
  <rect x="13" y="42" width="6" height="6" rx="1" fill="#374874"/>
  <rect x="25" y="42" width="6" height="6" rx="1" fill="#374874"/>
  <!-- Door -->
  <rect x="18" y="52" width="8" height="8" rx="1" fill="#FBDBD0" stroke="#374874" stroke-width="1.5"/>
  <!-- Side building / resource wing -->
  <rect x="36" y="28" width="18" height="32" rx="3" fill="#FBDBD0" stroke="#374874" stroke-width="2"/>
  <rect x="36" y="28" width="18" height="8" rx="3" fill="#374874"/>
  <rect x="36" y="33" width="18" height="3" fill="#374874"/>
  <!-- Side windows -->
  <rect x="40" y="42" width="5" height="5" rx="1" fill="#374874"/>
  <rect x="40" y="52" width="5" height="5" rx="1" fill="#C1DBF6" stroke="#374874" stroke-width="1"/>
  <!-- Plus/booking indicator -->
  <circle cx="50" cy="14" r="9" fill="#374874"/>
  <path d="M50 9 L50 19 M45 14 L55 14" stroke="white" stroke-width="2.5" stroke-linecap="round"/>
</svg>
